<?xml version="1.0" encoding="UTF-8" standalone="no"?>
<!DOCTYPE svg PUBLIC "-//W3C//DTD SVG 1.1//EN" "http://www.w3.org/Graphics/SVG/1.1/DTD/svg11.dtd">
<svg width="100%" height="100%" viewBox="0 0 384 415" version="1.1" xmlns="http://www.w3.org/2000/svg" xmlns:xlink="http://www.w3.org/1999/xlink" xml:space="preserve" xmlns:serif="http://www.serif.com/" style="fill-rule:evenodd;clip-rule:evenodd;stroke-linejoin:round;stroke-miterlimit:2;">
    <g transform="matrix(0.133333,0,0,-0.133333,-110.933,512.698)">
        <g id="g10">
            <path id="path66" d="M3357.51,2903.64L1895.64,3747.65C1670.29,3877.76 1412.33,3877.76 1186.98,3747.65C961.629,3617.55 832.648,3394.14 832.648,3133.93L832.648,1445.92C832.648,1185.71 961.629,962.305 1186.98,832.199C1412.33,702.094 1670.29,702.094 1895.64,832.199L3357.51,1676.21C3582.86,1806.31 3711.84,2029.71 3711.84,2289.93C3711.84,2550.14 3582.86,2773.54 3357.51,2903.64ZM1721.48,3213.68L3098.31,2454.7C3163.9,2418.55 3193.45,2364.85 3193.45,2289.93C3193.45,2215 3163.93,2161.32 3098.31,2125.15L1721.48,1366.18C1655.87,1330.01 1596.09,1328.72 1531.21,1366.18C1466.34,1403.63 1436.08,1456.03 1436.08,1530.96L1436.08,3048.89C1436.08,3123.77 1466.35,3176.23 1531.21,3213.68C1596.08,3251.11 1655.89,3249.83 1721.48,3213.68" style="fill:url(#_Linear1);fill-rule:nonzero;"/>
        </g>
    </g>
    <defs>
        <linearGradient id="_Linear1" x1="0" y1="0" x2="1" y2="0" gradientUnits="userSpaceOnUse" gradientTransform="matrix(2879.19,0,0,2879.19,832.651,2289.93)"><stop offset="0" style="stop-color:rgb(188,74,241);stop-opacity:1"/><stop offset="1" style="stop-color:rgb(227,105,219);stop-opacity:1"/></linearGradient>
    </defs>
</svg>
